<?xml version="1.0" encoding="UTF-8" ?>
<!DOCTYPE svg PUBLIC "-//W3C//DTD SVG 1.1//EN" "http://www.w3.org/Graphics/SVG/1.1/DTD/svg11.dtd">
<svg width="485pt" height="1000pt" viewBox="0 0 485 1000" version="1.1" xmlns="http://www.w3.org/2000/svg">
<g id="#666666ff">
<path fill="#666666" opacity="1.00" d=" M 35.33 384.28 C 44.22 384.41 53.11 384.35 62.00 384.37 C 191.11 384.34 320.22 384.42 449.33 384.33 C 449.17 390.54 448.52 396.72 448.02 402.91 C 444.75 450.03 441.65 497.17 438.05 544.27 C 435.15 575.83 432.96 607.44 430.62 639.05 C 427.92 670.03 426.41 701.10 423.67 732.07 C 421.76 756.74 419.98 781.41 417.58 806.04 C 414.62 832.71 412.20 859.45 408.29 886.01 C 407.95 889.99 404.42 892.35 401.42 894.41 C 386.24 904.54 368.72 910.42 351.16 914.90 C 317.12 923.24 282.00 926.28 247.03 926.59 C 213.51 926.84 179.88 924.50 146.97 917.99 C 136.45 916.03 126.11 913.19 115.93 909.93 C 107.54 907.25 99.59 903.39 91.81 899.30 C 87.40 896.83 82.91 894.34 79.17 890.90 C 77.18 889.24 76.85 886.56 76.47 884.18 C 71.07 844.58 67.14 804.80 63.91 764.98 C 63.18 753.32 61.97 741.70 61.13 730.05 C 58.89 700.36 56.98 670.65 54.72 640.96 C 52.17 610.33 50.27 579.65 47.45 549.04 C 44.75 513.92 42.14 478.78 39.74 443.63 C 38.57 423.82 37.29 404.02 35.33 384.28 Z" />
</g>
</svg>
