<?xml version="1.0" encoding="UTF-8" ?>
<!DOCTYPE svg PUBLIC "-//W3C//DTD SVG 1.1//EN" "http://www.w3.org/Graphics/SVG/1.1/DTD/svg11.dtd">
<svg width="726pt" height="1058pt" viewBox="0 0 726 1058" version="1.1" xmlns="http://www.w3.org/2000/svg">
<g id="#000000ff">
<path fill="#000000" opacity="1.00" d=" M 472.20 5.23 C 475.94 0.58 482.51 -0.04 488.02 0.90 C 497.17 2.49 505.52 6.84 514.39 9.46 C 521.16 11.41 527.97 13.47 534.21 16.83 C 538.17 18.99 540.26 23.58 540.41 27.96 C 540.82 36.03 537.77 43.64 535.29 51.16 C 528.78 70.16 523.28 89.49 516.46 108.38 C 511.60 123.77 506.07 138.94 501.29 154.36 C 493.92 176.00 486.83 197.74 479.53 219.40 C 473.86 237.34 468.28 255.30 462.31 273.14 C 458.08 287.62 452.89 301.79 448.30 316.16 C 446.20 323.01 444.52 330.26 440.17 336.12 C 439.48 337.26 438.16 337.60 436.94 337.79 C 425.70 339.49 414.31 338.49 403.00 338.65 C 393.34 338.47 383.67 339.32 374.01 338.66 C 371.22 338.45 368.39 338.17 365.74 337.21 C 363.58 332.10 364.81 326.30 366.23 321.15 C 377.05 289.20 387.56 257.15 398.31 225.18 C 400.75 218.72 402.28 211.97 404.50 205.44 C 407.25 197.73 409.18 189.76 412.05 182.10 C 417.70 164.00 424.13 146.16 429.91 128.11 C 434.48 112.10 440.92 96.70 445.64 80.73 C 448.09 72.04 451.35 63.59 453.87 54.92 C 456.34 46.16 459.67 37.67 462.08 28.90 C 464.83 20.80 466.81 12.09 472.20 5.23 Z" />
<path fill="#000000" opacity="1.00" d=" M 256.73 135.52 C 282.95 129.10 310.20 129.36 337.00 130.46 C 346.24 131.78 355.62 132.27 364.72 134.48 C 369.04 135.53 373.46 136.14 377.70 137.48 C 376.66 147.72 372.54 157.29 368.67 166.72 C 367.22 170.00 366.06 173.41 364.45 176.62 C 362.90 176.98 361.32 176.77 359.77 176.62 C 348.85 175.41 338.12 172.63 327.10 172.31 C 311.30 171.80 295.31 171.45 279.73 174.50 C 274.00 175.63 268.13 176.03 262.49 177.60 C 252.48 180.37 242.30 182.69 232.69 186.71 C 227.30 188.96 221.78 190.89 216.54 193.47 C 194.20 204.15 173.15 217.93 155.51 235.41 C 137.42 252.51 122.21 272.65 110.69 294.72 C 104.98 305.15 100.36 316.16 96.62 327.44 C 95.42 330.99 94.84 334.76 93.18 338.15 C 91.63 338.98 89.75 338.60 88.06 338.73 C 75.43 338.52 62.78 338.83 50.15 338.61 C 50.05 335.02 51.19 331.57 52.13 328.16 C 55.07 317.01 58.59 305.97 63.37 295.46 C 74.76 268.64 90.70 243.84 109.74 221.83 C 115.21 214.97 122.14 209.49 127.96 202.94 C 163.86 169.59 208.67 145.55 256.73 135.52 Z" />
<path fill="#000000" opacity="1.00" d=" M 646.13 149.04 C 646.77 145.89 647.19 142.61 648.81 139.77 C 654.40 146.60 654.50 155.85 657.33 163.86 C 662.41 177.86 671.60 190.71 684.41 198.58 C 691.39 202.75 698.81 206.32 706.71 208.37 C 712.91 210.40 719.53 211.75 724.97 215.53 C 716.23 217.35 707.37 218.86 699.01 222.10 C 681.63 229.22 666.27 242.55 658.96 260.09 C 656.16 266.16 655.39 272.88 653.03 279.09 C 651.71 282.68 650.61 286.35 649.44 289.99 C 645.59 280.43 644.61 269.95 640.37 260.52 C 635.11 249.29 627.63 238.84 617.47 231.57 C 609.84 225.77 600.67 222.64 591.79 219.34 C 586.21 217.27 580.38 215.94 574.85 213.74 C 578.23 212.14 581.94 211.48 585.51 210.45 C 593.96 207.97 602.59 205.67 610.28 201.25 C 617.40 197.41 623.44 191.88 628.84 185.91 C 637.80 175.48 643.58 162.50 646.13 149.04 Z" />
<path fill="#000000" opacity="1.00" d=" M 524.35 233.26 C 532.37 240.61 538.26 249.87 543.94 259.06 C 547.56 264.95 551.05 270.94 553.91 277.25 C 564.09 296.63 571.49 317.41 576.79 338.61 C 564.51 338.81 552.23 338.55 539.96 338.72 C 537.59 338.71 535.17 338.82 532.86 338.22 C 530.84 331.59 528.97 324.91 526.49 318.42 C 522.99 307.93 516.77 298.68 512.29 288.62 C 511.04 285.80 509.58 282.97 509.29 279.86 C 509.16 276.62 510.41 273.56 511.41 270.54 C 514.53 261.88 517.03 253.01 520.40 244.44 C 521.87 240.77 523.04 236.99 524.35 233.26 Z" />
<path fill="#000000" opacity="1.00" d=" M 10.13 374.20 C 16.69 373.01 23.39 373.37 30.02 373.32 C 47.02 373.31 64.03 373.63 81.02 372.88 C 96.34 372.61 111.67 372.93 127.00 372.90 C 276.33 372.98 425.67 372.89 575.00 372.94 C 587.02 372.88 599.07 372.15 611.07 373.18 C 615.38 373.54 619.96 374.71 622.98 378.03 C 625.50 380.64 625.73 384.48 626.02 387.90 C 626.66 398.59 626.20 409.30 626.37 420.00 C 626.33 426.58 626.62 433.31 624.78 439.70 C 623.68 443.89 619.91 446.92 615.74 447.72 C 608.60 449.23 601.24 448.75 593.99 448.82 C 445.33 448.73 296.66 448.73 148.00 448.79 C 108.00 448.84 68.01 448.74 28.01 448.94 C 23.49 448.93 18.94 449.19 14.46 448.49 C 8.96 447.56 4.66 443.75 0.00 440.99 L 0.00 440.22 C 2.11 433.73 1.01 426.89 0.00 420.31 L 0.00 391.63 C 0.18 388.50 0.51 385.35 1.31 382.31 C 2.31 378.18 5.93 374.84 10.13 374.20 Z" />
<path fill="#000000" opacity="1.00" d=" M 535.58 489.65 C 545.15 486.79 555.29 487.21 565.17 487.50 C 568.83 487.68 572.65 487.63 576.08 489.12 C 577.09 497.73 575.77 506.41 574.83 514.98 C 572.46 529.97 570.89 545.08 568.38 560.06 C 564.83 584.26 561.44 608.48 557.86 632.68 C 556.85 640.92 556.39 649.22 555.18 657.44 C 550.42 688.23 546.93 719.20 542.10 749.97 C 541.34 757.38 539.34 764.59 538.75 772.02 C 538.41 775.92 538.02 779.82 537.41 783.69 C 536.05 792.16 535.36 800.71 534.00 809.18 C 531.19 829.22 528.04 849.20 525.56 869.29 C 522.99 891.24 518.05 912.88 516.55 934.96 C 515.79 943.26 514.06 951.44 512.89 959.69 C 511.30 969.56 510.62 979.57 508.53 989.36 C 502.30 1020.69 476.65 1047.12 445.61 1054.51 C 433.31 1057.59 420.53 1056.74 407.97 1057.01 C 354.65 1056.99 301.33 1056.98 248.00 1057.00 C 233.68 1056.97 219.36 1057.21 205.04 1057.02 C 196.00 1056.96 186.92 1056.27 178.16 1053.89 C 167.39 1051.46 157.70 1045.73 149.08 1038.99 C 138.84 1031.46 130.86 1021.20 124.87 1010.07 C 121.09 1002.51 117.74 994.51 117.05 986.00 C 115.36 966.98 111.98 948.16 108.89 929.33 C 106.90 911.37 104.55 893.46 101.70 875.62 C 100.37 862.63 98.03 849.79 96.47 836.84 C 95.29 826.28 93.18 815.86 91.89 805.32 C 90.73 795.39 88.82 785.58 87.49 775.67 C 86.30 768.25 85.72 760.74 84.39 753.34 C 83.31 747.37 82.75 741.32 81.79 735.32 C 79.44 720.62 77.95 705.79 76.08 691.02 C 75.41 682.24 73.40 673.65 72.25 664.93 C 69.91 648.12 67.35 631.34 65.25 614.50 C 63.02 601.53 61.96 588.39 59.75 575.42 C 57.49 558.80 55.31 542.16 53.20 525.51 C 50.76 513.35 49.30 500.86 50.36 488.47 C 59.18 487.36 68.12 487.76 76.99 487.59 C 81.13 487.63 85.37 487.22 89.40 488.36 C 90.80 492.68 91.31 497.22 92.10 501.68 C 93.59 511.84 95.45 521.94 96.53 532.16 C 98.19 550.55 102.06 568.64 104.17 586.98 C 106.08 599.58 108.06 612.18 109.48 624.86 C 112.15 641.80 114.30 658.82 116.47 675.84 C 117.82 683.30 118.83 690.82 119.84 698.34 C 121.95 710.46 122.73 722.75 124.30 734.94 C 125.18 740.97 126.36 746.95 127.17 752.99 C 130.73 772.42 131.92 792.20 135.20 811.68 C 136.40 818.45 136.89 825.32 137.95 832.12 C 139.68 842.95 141.25 853.81 142.53 864.71 C 143.54 871.67 144.79 878.59 145.72 885.56 C 148.03 899.71 149.04 914.04 151.54 928.17 C 154.05 944.30 156.22 960.47 158.64 976.61 C 159.93 984.91 162.85 993.19 168.27 999.72 C 175.36 1008.37 186.22 1013.03 197.11 1014.52 C 203.38 1015.22 209.70 1015.03 215.99 1015.04 C 258.33 1014.74 300.66 1015.09 343.00 1014.97 C 357.33 1015.00 371.66 1014.58 386.00 1014.64 C 400.29 1014.45 414.60 1015.93 428.87 1014.59 C 434.17 1014.12 439.39 1012.75 444.14 1010.33 C 455.29 1005.12 463.67 994.62 466.80 982.77 C 468.57 976.24 468.92 969.45 469.97 962.79 C 470.80 957.56 471.66 952.32 472.18 947.05 C 473.91 929.96 477.12 913.07 478.87 895.98 C 482.46 870.64 486.71 845.39 489.72 819.97 C 491.17 805.42 493.95 791.05 495.77 776.54 C 499.97 749.19 502.66 721.64 507.15 694.34 C 508.35 684.97 509.39 675.58 511.23 666.31 C 513.74 653.70 514.67 640.85 516.33 628.11 C 518.55 611.91 520.72 595.70 523.32 579.55 C 526.74 554.04 530.57 528.58 533.82 503.04 C 534.36 498.57 534.17 493.96 535.58 489.65 Z" />
<path fill="#000000" opacity="1.00" d=" M 138.43 550.66 C 150.56 549.19 162.82 550.42 175.00 550.10 C 274.00 550.13 372.99 550.24 471.99 550.03 C 477.31 550.05 482.67 550.15 487.95 550.96 C 492.16 551.47 495.92 554.29 497.88 558.01 C 499.42 561.28 498.81 565.01 498.67 568.50 C 497.63 581.72 496.42 594.96 493.99 608.01 C 492.91 613.86 492.46 619.82 491.48 625.69 C 489.44 638.66 488.32 651.76 486.38 664.74 C 484.00 678.03 482.48 691.46 480.65 704.84 C 479.75 711.92 478.04 718.88 477.33 725.99 C 475.62 749.19 470.37 771.93 467.77 795.03 C 465.63 815.35 462.15 835.49 459.39 855.74 C 458.07 862.71 457.97 869.85 456.70 876.84 C 455.28 884.87 454.49 893.00 452.99 901.02 C 451.95 906.66 451.80 912.42 450.94 918.10 C 450.16 923.49 449.09 928.84 448.52 934.27 C 447.32 946.34 445.44 958.35 443.19 970.27 C 441.77 976.29 440.62 983.33 435.14 987.11 C 430.37 990.15 424.42 989.70 419.01 989.95 C 354.34 989.64 289.67 989.75 225.00 989.83 C 217.30 989.82 209.60 990.07 201.91 989.71 C 197.70 989.53 193.48 988.35 190.00 985.92 C 186.79 983.57 184.97 979.83 183.84 976.11 C 180.94 966.75 181.12 956.84 179.36 947.27 C 178.55 942.87 178.03 938.44 177.65 934.00 C 176.95 925.94 175.04 918.05 174.35 910.00 C 173.77 903.28 172.40 896.67 171.64 889.98 C 168.56 871.45 166.53 852.77 163.98 834.16 C 162.27 823.08 161.49 811.88 159.37 800.87 C 155.23 772.28 151.74 743.61 147.07 715.10 C 145.92 706.59 145.38 698.00 143.71 689.57 C 142.25 680.36 141.18 671.11 139.50 661.94 C 137.19 638.62 133.21 615.51 130.47 592.24 C 129.45 584.85 127.54 577.58 127.17 570.10 C 127.03 566.30 126.59 562.34 127.82 558.68 C 129.66 554.41 133.99 551.59 138.43 550.66 M 305.51 607.66 C 297.26 609.85 290.05 615.39 285.83 622.80 C 279.81 632.46 280.52 645.27 286.08 654.96 C 292.33 664.92 304.28 671.24 316.08 670.10 C 324.26 669.61 331.59 664.96 336.97 659.01 C 345.69 649.84 347.37 634.91 341.15 623.94 C 334.51 611.60 319.28 604.02 305.51 607.66 M 214.41 673.68 C 203.43 675.81 194.13 684.40 190.88 695.06 C 186.04 708.01 191.98 723.20 203.18 730.81 C 210.28 736.39 219.98 737.56 228.58 735.47 C 234.69 733.74 240.22 730.19 244.48 725.50 C 252.15 717.35 254.14 704.85 250.72 694.38 C 248.14 685.89 241.43 678.87 233.16 675.73 C 227.30 673.13 220.69 672.66 214.41 673.68 M 399.38 673.63 C 389.94 675.31 381.71 681.86 377.26 690.27 C 373.47 697.55 372.86 706.28 375.06 714.14 C 379.79 728.32 395.17 738.10 410.03 736.18 C 415.94 735.54 421.01 732.14 425.69 728.74 C 431.98 724.20 436.37 716.90 436.85 709.10 C 437.13 704.47 437.09 699.71 435.68 695.25 C 432.91 687.01 427.02 679.56 418.88 676.16 C 412.88 673.10 405.94 672.69 399.38 673.63 M 305.44 731.60 C 299.68 732.92 294.49 736.17 290.45 740.44 C 286.00 744.90 282.51 750.61 281.83 756.98 C 281.36 761.78 281.37 766.73 282.70 771.41 C 287.06 785.24 301.56 795.21 316.09 793.88 C 322.05 793.58 327.55 790.76 332.30 787.31 C 337.24 783.75 340.60 778.39 342.73 772.76 C 346.46 761.71 344.12 748.55 335.99 740.02 C 328.11 732.20 316.20 729.10 305.44 731.60 M 216.42 784.51 C 206.28 786.71 197.65 794.16 193.71 803.71 C 191.98 807.90 191.55 812.51 191.65 817.02 C 191.76 825.88 196.52 834.27 203.38 839.71 C 207.41 842.93 212.00 845.82 217.22 846.48 C 221.27 846.95 225.41 846.92 229.43 846.22 C 241.77 843.65 252.40 833.36 254.48 820.79 C 255.20 815.25 254.92 809.46 252.84 804.22 C 250.85 798.73 247.01 794.11 242.68 790.29 C 235.54 784.20 225.44 782.23 216.42 784.51 M 394.42 784.59 C 383.56 787.32 375.45 796.66 372.23 807.12 C 369.28 817.37 372.37 828.73 379.48 836.55 C 387.70 844.89 400.32 848.99 411.76 845.85 C 419.63 843.37 426.47 837.80 430.61 830.68 C 434.71 823.64 435.22 815.04 433.65 807.20 C 432.14 800.24 427.35 794.54 421.94 790.16 C 414.30 784.11 403.80 782.29 394.42 784.59 M 305.37 844.61 C 292.66 847.91 282.18 859.72 281.65 873.03 C 281.41 877.39 281.44 881.91 283.00 886.06 C 286.33 894.95 293.85 902.01 302.70 905.30 C 307.56 907.20 312.92 907.11 318.05 906.73 C 323.65 906.27 328.63 903.24 332.98 899.88 C 339.71 894.29 344.75 885.97 344.45 876.98 C 345.09 866.40 340.24 855.62 331.51 849.52 C 324.08 844.13 314.25 842.38 305.37 844.61 M 228.40 894.62 C 223.38 895.25 218.65 897.60 214.98 901.07 C 208.17 907.08 203.28 915.74 203.22 924.97 C 202.91 931.05 204.80 937.05 207.73 942.32 C 211.17 948.23 217.01 952.31 223.21 954.92 C 229.74 957.86 237.31 958.06 244.16 956.17 C 250.30 954.49 255.35 950.21 259.35 945.42 C 265.82 937.52 268.13 926.45 265.23 916.66 C 263.20 910.17 258.48 905.02 253.47 900.63 C 250.07 897.73 245.96 895.63 241.60 894.67 C 237.24 893.96 232.77 894.10 228.40 894.62 M 384.39 894.67 C 376.58 896.52 369.90 901.71 365.12 908.04 C 362.55 911.52 360.40 915.51 360.05 919.90 C 359.65 924.72 359.70 929.65 360.83 934.39 C 363.39 943.83 370.87 951.53 379.83 955.22 C 386.29 958.01 393.66 957.83 400.40 956.25 C 413.57 952.75 423.14 939.57 423.01 926.03 C 423.24 919.01 421.28 911.75 416.39 906.55 C 408.89 897.19 396.20 892.38 384.39 894.67 Z" />
</g>
<g id="#000000d2">
<path fill="#000000" opacity="0.82" d=" M 0.00 420.31 C 1.01 426.89 2.11 433.73 0.00 440.22 L 0.00 420.31 Z" />
</g>
<g id="#00000025">
<path fill="#000000" opacity="0.15" d=" M 205.04 1057.02 C 219.36 1057.21 233.68 1056.97 248.00 1057.00 C 301.33 1056.98 354.65 1056.99 407.97 1057.01 L 408.08 1058.00 L 204.92 1058.00 L 205.04 1057.02 Z" />
</g>
</svg>
